<svg id="Layer_1" data-name="Layer 1" xmlns="http://www.w3.org/2000/svg" viewBox="0 0 485.86 580"><defs><style>.cls-1{fill:red;}.cls-2{fill:#fff;}.cls-3{fill:#ffb100;}</style></defs><title>up-n-smoke</title><path class="cls-1" d="M588.2,650H132.42a15,15,0,0,1-15-15V580.13a15,15,0,0,1,15-15H588.2a15,15,0,0,1,15,15V635a15,15,0,0,1-15,15" transform="translate(-117.38 -70.03)"/><polyline points="29.96 62.03 33.16 43.79 31.79 24.17 34.52 7.3 51.4 4.56 87.89 7.3 106.59 4.56 106.59 24.17 107.96 43.79 107.96 63.4 108.9 67.08 109.33 71.19 107.96 90.8 110.7 110.42 110.7 130.49 112.07 135.97 110.7 155.13 110.7 175.2 113.44 194.81 114.8 213.06 123.47 224.92 138.52 224.92 154.03 223.1 165.89 214.43 168.63 194.81 167.26 175.2 167.26 155.13 168.63 135.97 170 129.12 168.63 109.05 172.73 90.8 170 71.19 172.68 67.08 174.1 63.4 172.73 43.79 175.47 24.17 172.73 4.56 193.71 5.93 213.33 3.19 234.76 4.56 234.76 24.17 237.5 43.79 237.5 62.03 237.53 70.27 237.5 69.82 236.13 88.07 238.87 107.68 237.5 126.38 237.5 132.78 238.87 152.4 240.24 171.1 241.61 190.71 241.61 208.96 242.97 229.03 242.97 248.64 241.61 266.43 230.2 278.29 217.89 287.87 206.03 300.64 188.24 299.27 170 302.01 151.29 300.64 60.07 300.64 46.84 287.87 33.16 279.65 20.38 266.43 20.38 247.27 21.75 229.03 24.49 208.96 23.12 189.34 27.23 171.1 24.49 151.03 27.23 132.78 27.23 126.38 29.96 107.68 31.79 88.07 31.79 68.45"/><path d="M390,133.89V113.37l3.19-19.62V73.23l19.61,3.19,23.27-3.19H456.6l10.95-1.83,32.84,4.11L530.49,70l21,.92,23.26,15.5,9.12,17.34-2.74,29.65,8.67-2.7-.91,67.5,3.19,22.82-5.93,17.79-12.77,10.49-15.51,10.49-29.65-1.37L510,255.73l-38.32,1.82,1.83,12.32V350.6l2.74,20.07H456.15l-20.07,2.74-17.34-2.74H378.6V350.6l2.74-20.07V289.94l3.19-20.07V202.35l2.74-20.07m77.15-46.23.39,6.09v20.07l2.28,11.86v5l.46,3.2v.91l7.3,4.56,17.79,4.56h18.7l8.21-9.12-4.11-24.63V130.73l-8.22-1.86H486.71l-17.79,2.29-4.11,2.73" transform="translate(-117.38 -70.03)"/><path d="M159.79,461.86l11.23-.79,12,5.06,7,6.49-1.11,9.49,1.11,7.44-.47,17.09,1,12.81-13.3,12.19-11.23-.8L159.79,532l-19.62-3.16-10.6.79-9.34-15-.31-20.73,2.21-5.38,9.18.63,8.54-1.11,4.59,3.17-.32,11.55,3.64,2.85h9.81l4.28-7.12.47-10.76L156,479.74l-13.45-1.27-6.33-3.8-10.12-4.27-1.27-16.77,1.74-18.2-.47-10.92,13.29-11.7,14.4-.48c.31-.32,7,.48,10.12.48l11.08.31,5.38-.31c1.11.31,6.64,8.07,10.13,12V432l1.1,2.22v7.75l.79,4.59-8.86,2.85-9.65-2.85-.63-5.7.95-4.27L169,432l-6.65.32-7.91-.79-3.16,4.27,1.42,11.55.63,5.54-.31,5.85Z" transform="translate(-117.38 -70.03)"/><polygon points="173.74 460.81 166.31 461.6 159.82 460.81 159.82 453.69 160.61 446.41 160.61 425.21 161.24 417.93 162.03 410.65 162.03 403.37 148.11 415.71 133.71 415.71 119.94 403.37 119.94 409.86 120.58 415.71 120.58 428.85 122 435.33 121.37 441.98 122.79 447.83 122.79 454.32 123.58 461.6 116.31 461.6 109.5 460.81 103.01 460.81 95.73 461.6 90.04 460.18 90.04 454.32 89.25 447.04 90.67 440.56 90.67 433.12 91.46 425.84 90.67 419.35 90.67 412.07 92.1 405.59 91.46 398.31 92.1 391.82 92.89 384.54 92.89 363.97 94.31 356.69 93.68 350.21 93.68 342.93 101.59 342.3 109.5 343.72 116.94 342.93 119.94 349.42 123.58 355.27 126.43 361.13 128.65 367.61 132.28 373.47 134.34 379.95 137.66 385.49 140.99 391.82 144.63 385.97 146.69 379.32 149.69 373.47 153.33 367.61 156.18 361.76 158.39 355.27 161.24 348.78 164.25 342.3 172.32 342.3 180.23 343.72 187.51 342.93 187.51 350.21 189.09 356.69 188.3 363.97 189.09 370.62 189.09 377.74 189.72 385.18 190.51 391.82 190.51 398.94 191.15 405.59 191.15 419.35 191.94 426.63 191.94 433.12 192.57 440.56 193.36 447.04 193.36 454.32 192.57 460.18 180.23 461.6 173.74 460.81"/><path d="M601.58,524.2l-.32,9.65-16,3.48-10.6-2.85-10.92,2.69-21.52-2.69-10,1.27-15.35-4.27-8.54-9.34-9-7.75L496,508.06l-2.38-8.23-.31-.31-.63.31-3.17-6.65L487,482.74l-2.22-5.69h-2.21l1,5.69v7l.95,7v28l.95,7h-7l-7,.94-6-.94H451.58v-7l.95-7V503.63l1.1-7V468.82l.95-7V441l.95-7v-7.12l1.11-6.81V413l6.8,1.11,8.07-1.11h7.91v13.93l2.06,7.12-1,7,1,7v7l.95,7-.63,5.22,2.53-1.74,3-8.23,4.58-8.54,1.27-8.55,2.22-6.17,1.42-6.17.95-3.64,1.42-5.22,1.11-5.22,4.91-.48,5.69-.16,8.23.64,9.18.15-1.43,6.18-3.48,7.59L520.09,437l-2.53,7.6-2.22,4.75-1.11,8.7-3.79,6.33-1.43,4.9.95,6.81,5.38,5.38,1.74,4.9,1.9,8.07,4,4,6.33,4.43,7.59,5.53,8.86.64,7.44.95,16.61-.79,13.61-.48,13-2.21,2.69.31v12.82Zm-54.12-27.06-7.59-.47v-7.12l1-7.76-.16-7.43,1.11-7.76.15-7.59,1.11-7.75v-7.44l1-7.75.48-7.6v-7.59l.95-7.44,7.27-.63,7.6,1.1,7.44-1.1,7.27.47h7.44l7.44.16.63,6.8v7.12l1,6.65h-8.86l-8.39.31H566l-.32,6.17.47,6.65,7.92-.47,7.43.47h7.44l.32,8.7,1.26,9-7.91-.47-7.28.47-8.07-.47-1,7.91,3.48,7.28,8.39-.32,8.07-.63,8.39,1.11.15,8.38v9h-15l-8.07.48H563.6l-8.07-.32Z" transform="translate(-117.38 -70.03)"/><path class="cls-2" d="M157.84,604.26l4.69-.33,5,2.11,2.9,2.71-.46,4,.46,3.11-.19,7.13.39,5.35-5.55,5.09-4.69-.33-2.57.46-8.19-1.32-4.43.33-3.9-6.27-.13-8.66.93-2.24,3.83.26,3.57-.46,1.91,1.32-.13,4.82,1.52,1.19h4.09l1.79-3,.2-4.49-2.65-3.31-5.61-.52L148,609.61l-4.23-1.78-.53-7,.73-7.6-.2-4.56,5.55-4.89,6-.19c.13-.14,2.9.19,4.23.19l4.62.13,2.25-.13c.46.13,2.77,3.37,4.22,5v3l.47.93v3.24l.33,1.91-3.7,1.19-4-1.19-.27-2.38.4-1.78-2.18-1.92-2.77.14-3.31-.33-1.32,1.78.6,4.82.26,2.31-.13,2.45Z" transform="translate(-117.38 -70.03)"/><path class="cls-2" d="M205.79,633.06l-2.64-.33-2.84.33h-5.15l-2.91.33-2.64-.33-2.51.33-2.58-.33-1.91-1.59-2-2-1.92-1.25.33-2.91v-8.39l.33-2.57v-2.91l.27-2.84L180,606v-2.91l-.33-2.84.33-2.64.33-2.84V589.2l2.31-1.85,1.91-1.92,1.92-1.65h6.47l2.91.27,3.17-.27,3.24-.33,3.89,3.9,2.18,1.85v2.64l.4,2.91v2.84l.66,2.64V606l.33,3,.27,2.51.33,2.91-.33,3,.33,2.84.33,2.58.33,2.9v2.91l-2.65,1.91ZM200,621.76v-6.07l-.33-4.56.33-3.24.33-2.84-.66-2.9v-2.91L200,596v-2.9l-2-1.26-3.83-.33-1.59,1.59-.33,3.23.33,2.91-.33,2.91v9l.33,4.56-.66,2.84v3.23l1.92,1.26h4.49Z" transform="translate(-117.38 -70.03)"/><polygon class="cls-2" points="128.11 513.81 131.22 514.01 131.22 516.85 131.61 519.69 131.61 522.34 131.22 525.18 131.61 528.08 131.41 530.72 131.81 533.56 131.61 536.27 131.61 539.05 131.81 541.89 132.01 544.6 132.21 547.44 132.21 550.08 132.41 552.99 132.41 555.83 132.21 558.4 130.56 560.12 128.77 561.51 127.06 563.36 124.48 563.16 121.84 563.55 119.13 563.36 105.92 563.36 104 561.51 102.02 560.32 100.17 558.4 100.17 555.63 100.37 552.99 100.77 550.08 100.57 547.24 101.16 544.6 100.77 541.69 101.16 539.05 101.16 536.27 101.56 533.56 101.82 530.72 101.82 527.88 101.36 525.18 101.56 522.34 102.02 519.69 101.82 516.85 102.22 514.41 104.66 514.01 109.95 514.41 112.66 514.01 112.66 516.85 112.85 519.69 112.85 522.53 113.05 525.37 113.05 528.28 112.85 531.12 113.25 533.96 113.25 536.87 113.45 539.51 113.25 542.28 113.25 545.19 113.65 548.03 113.84 550.67 115.1 552.39 117.28 552.39 119.53 552.13 121.24 550.87 121.64 548.03 121.44 545.19 121.44 542.28 121.64 539.51 121.84 536.67 121.64 533.76 122.23 531.12 121.84 528.28 122.23 525.37 122.43 522.53 122.23 519.69 122.63 516.85 122.23 514.01 125.27 514.21 128.11 513.81"/><polygon class="cls-2" points="170.19 517.58 170.19 521.34 167.42 521.48 158.96 521.48 159.29 522.6 158.9 525.51 159.29 528.41 159.29 531.32 159.69 534.23 159.29 537.13 159.69 540.04 160.15 542.95 160.15 545.85 159.89 548.76 160.55 551.66 160.55 560.45 160.94 563.36 158.04 563.36 155.13 563.75 152.62 563.36 146.81 563.36 146.81 560.45 147.2 557.54 147.2 551.66 147.67 548.76 147.67 537.13 148.06 534.23 148.85 531.32 148.06 528.41 148.06 525.51 148.46 522.6 148.46 521.41 146.87 521.48 135.97 521.81 135.97 520.02 135.71 517.45 136.17 515.6 135.97 513.81 138.35 513.95 147.07 513.95 150.44 514.34 154.4 513.68 156.98 513.75 158.37 513.81 158.43 513.81 161.08 513.95 169.86 513.88 170.06 515.73 170.19 517.58"/><polygon class="cls-2" points="208.96 563.36 206.06 563.36 203.15 563.75 200.64 563.36 194.83 563.36 194.83 560.45 195.22 557.54 195.22 551.66 195.69 548.76 195.69 544.13 194.56 544 190.47 544 188.16 544.33 188.16 545.85 188.55 548.76 188.55 560.45 188.95 563.36 186.04 563.36 183.14 563.75 180.63 563.36 174.81 563.36 174.81 560.45 175.21 557.54 175.21 551.66 175.67 548.76 175.67 537.13 176.07 534.23 176.07 525.51 176.46 522.6 176.46 519.63 176.93 516.79 176.93 513.81 179.77 514.28 183.14 513.81 186.44 513.81 186.44 519.63 187.3 522.6 186.9 525.51 187.3 528.41 187.3 529.93 187.36 529.93 187.3 530.39 187.3 531.32 187.36 531.72 190.07 532.05 193.04 531.32 196.08 531.32 196.08 525.51 196.48 522.6 196.48 519.63 196.94 516.79 196.94 513.81 199.78 514.28 203.15 513.81 206.45 513.81 206.45 519.63 207.31 522.6 206.92 525.51 207.31 528.41 207.31 531.32 207.71 534.23 207.31 537.13 207.71 540.04 208.17 542.95 208.17 545.85 208.57 548.76 208.57 560.45 208.96 563.36"/><path class="cls-2" d="M361.81,633.39l-2.84-.13-3,.39-2.77-.39-3.11.39h-5.74l-2.78-.26-2.9.26h-2.91l-2.84-.26.26-2.77.13-2.91-.13-3.11.13-2.84v-2.84l.27-3.1v-2.91l.66-2.84-.2-2.9.2-3,.2-2.84-.2-2.91.2-2.77.26-3.11.13-3,.53-2.84v-2.84l2.64.26,2.84-.26h2.85l1.18-.46c-.26-.14,1.92.46,2.91.66l8.19.19,2.78-.39V588l.53,4.1-3.24.46-4.16-.13-4.3-.33-3,.39.2,2.84-.2,3,.73,2.78,2,.06a37.78,37.78,0,0,1,4.23.2l5.88-.33a54.63,54.63,0,0,1,.79,5.55l-.66,3.7.27,4-7.27.06-4.75-.26.19,1.39v4.62l.73,2.64,2.91-.13,3,.59,2.84-.46h6v4.63l-.27,3.17Z" transform="translate(-117.38 -70.03)"/><path class="cls-2" d="M400.59,633.13l-2.51.52c-.2.27-.93,0-1.39,0l-2.11-.13-3.83-.33-3.17.2-.4-2.57-1.06-4.23-1-3.11v-4.69l-1.52-1.45-1-2.51-.53-1.59-1,.14v2.51l.4,2.9v11.69l.4,2.91H379l-2.91.4-2.51-.4h-5.81v-2.91l.4-2.9V621.7l.46-2.91v-8.72l1.91-2.84-1.52-3v-8.72l.4-2.91v-3l.46-2.84v-3l2.84.46,3.37-.46h3.3V584h.33c.34.13,2.85-.2,4.23-.26l3.57-.2,2.44,1.06,4.17,1.58,2.31,1.92,1.71,3.43.67,3.11-.53,3.3c0,.33.26,5,.13,5.35a11.66,11.66,0,0,1-.86,2.9l-1.92,2.45-2.57,1.65.86,2.51,1.19,2.91c.19.39.66,1.52,1,2.24l.53,3.77,2.31,4.62,1,3.7,1.45,2.64c.2.33-.53.33-.79.47m-13.87-38.25c0-1.06-.8-1.32-3.5-1.92l-2.18.2-.86.07-.33,2.31.39,2.91v2.9l.4,2.91-.13,1.12h1.91l2.25.13,1.39-.92.72-2.25v-.66l-.46-2.18.59-1.58a22.76,22.76,0,0,0-.19-3" transform="translate(-117.38 -70.03)"/><path class="cls-2" d="M441.28,633.32H438.7l-2.64.4-2.31-.4h-4l-1.25.07L423.64,619l-2.11-5.35-2.51-3,.39,2.38v2.91l.4,2.9v11.69l.4,2.91H417.3l-2.91.4-2.51-.4h-5.81v-2.91l.4-2.9V621.7l.46-2.91V607.17l.4-2.91v-8.72l.39-2.91v-3l.46-2.84v-3l2.84.46,3.11-.46.06-.2h3.9a13,13,0,0,0,.86,2.05l1.06,2.51,1.25,2.24,1.59,3.11.59,3.76,2.18,2.91.86,2.25,1.72,4.42,1.12,4.23v-4l.33-2.91v-8.65l.4-2.91v-3l.39-2.84v-3l2.58.46,3-.46h3v5.81l.79,3-.39,2.91.39,2.91v2.84l.34,2.9-.34,2.91.34,2.91.39,2.9v2.91l.4,2.91v11.69Z" transform="translate(-117.38 -70.03)"/><path class="cls-2" d="M498.22,614.76v5.42l.2,2.58.26,2.57.33,2.78-2.05,2-2.31,1.39-2,1.78h-5.15l-2.64.59-2.58-.26-2.64-.33h-9.38l-3.17.33v-3.24l.33-2.9v-2.91l.2-2.91v-2.9l.33-2.91-.33-2.91.33-3,.26-2.84v-5.88l.4-2.9.26-2.85-.26-2.84.53-3v-5.81h3.17l3.23.26,2.84-.59.6.33h7.66l2.58-.33h2.57l2.12,1.65,1.71,1.78.27,3,.26,3.17.53,3,.33,2.77v3l.4,2.84-3,2.65,3,2.11.53,2.44ZM478.93,592.9l.26,2.84v2.84l.66,3v1.19l1.13.53,2.57.59h2.71l1.19-1.12-.59-3.1V596.4l-.27-3.3-.92-1.19h-3l-2.57.26Zm8.52,32.43-.33-3.37-.26-3v-3.17l-.6-2.91-.92-1.25-2.65.26-2.57-.53-1.19,1.19v2.91l.66,2.91v3l.26,3.7.86,1.25h2.58l2.64-.26Z" transform="translate(-117.38 -70.03)"/><path class="cls-2" d="M536.13,614.76v5.42l.2,2.58.26,2.57.33,2.78-2,2-2.32,1.39-2,1.78h-5.16l-2.64.59-2.57-.26-2.65-.33h-9.38l-3.17.33v-3.24l.33-2.9v-2.91l.2-2.91v-2.9l.33-2.91-.33-2.91.33-3,.27-2.84v-5.88l.39-2.9.27-2.85-.27-2.84.53-3v-5.81h3.17l3.24.26,2.84-.59.59.33h7.67l2.57-.33h2.58l2.11,1.65,1.72,1.78.26,3,.27,3.17.53,3,.33,2.77v3l.39,2.84-3,2.65,3,2.11.53,2.44ZM516.84,592.9l.27,2.84v2.84l.66,3v1.19l1.12.53,2.58.59h2.7l1.19-1.12-.59-3.1V596.4l-.26-3.3-.93-1.19h-3l-2.58.26Zm8.52,32.43L525,622l-.26-3v-3.17l-.6-2.91-.92-1.25-2.64.26-2.58-.53-1.19,1.19v2.91l.66,2.91v3l.27,3.7.86,1.25h2.57l2.64-.26Z" transform="translate(-117.38 -70.03)"/><path class="cls-2" d="M570,633.06l-2.64-.33-2.84.33h-5.16l-2.9.33-2.64-.33-2.51.33-2.58-.33-1.92-1.59-2-2-1.91-1.25.33-2.91v-8.39l.33-2.57v-2.91l.26-2.84.33-2.64v-2.91l-.33-2.84.33-2.64.33-2.84V589.2l2.31-1.85,1.92-1.92,1.92-1.65h6.47l2.91.27,3.17-.27,3.23-.33,3.9,3.9,2.18,1.85v2.64l.4,2.91v2.84l.66,2.64V606l.33,3,.26,2.51.33,2.91-.33,3,.33,2.84.33,2.58.33,2.9v2.91l-2.64,1.91Zm-5.81-11.3v-6.07l-.33-4.56.33-3.24.33-2.84-.66-2.9v-2.91l.33-3.24v-2.9l-2-1.26-3.84-.33-1.58,1.59-.33,3.23.33,2.91-.33,2.91v9l.33,4.56-.66,2.84v3.23L558,623h4.5Z" transform="translate(-117.38 -70.03)"/><polygon class="cls-2" points="460.08 562.67 457.48 563.45 454.02 561.38 452.15 560.53 450.75 559.1 448.7 558.32 445.88 558.65 447.02 554.48 448.79 550.07 451.41 549.5 453.96 550.27 455.92 551.3 457.2 552.4 459.42 553.39 460.67 554.19 462.87 553.53 466.15 554.24 464.85 558.71 462.73 562.98 460.08 562.67"/><path class="cls-3" d="M438.51,472.88a2.94,2.94,0,0,0-.28-.63,41.15,41.15,0,0,1-17.84,11.13,1.79,1.79,0,0,1,0-.35c.63-1,1.27-1.94,1.89-2.92,7.82-12.36,10.53-25.53,6.13-39.76-3.16-10.22-9-18.78-16.57-26.23-.88-.87-1.8-1.7-3-2.81a51.9,51.9,0,0,1-9.15,20.91c-1.63-8.37-4.12-15.83-8.56-22.5s-10.18-12.13-17.86-15.13a4.16,4.16,0,0,0-.42.58,8.68,8.68,0,0,0-.33,1A40.59,40.59,0,0,1,366.77,409c-2.81,4.2-5.75,8.3-8.72,12.39-7,9.58-11.68,20-12.53,32-.12,1.65-.23,3.3-.37,5.23l-.11.09c-4.25-4-7.13-8.62-10-13.74-.78,1.6-1.47,2.8-2,4.08a80.28,80.28,0,0,0-5.23,37.92,58.43,58.43,0,0,0,19.78,39.33,52.86,52.86,0,0,0,72.91-2c14.3-14.21,19.1-31.79,17.95-51.42" transform="translate(-117.38 -70.03)"/><path class="cls-1" d="M383.07,521.09a34.38,34.38,0,0,1-22.9-8.84,39.86,39.86,0,0,1-13.6-27.09c-.09-1.05-.17-2.09-.22-3.12l17-14.15.93-13.21c.53-7.49,3.38-14.57,9-22.27,1.63-2.24,3.32-4.58,5-7a53.77,53.77,0,0,1,3,10.4l8.25,42.39,21.63-29.74c1.57,7.26.06,14-4.73,21.6-.32.51-.65,1-1,1.51l-.85,1.32A18.71,18.71,0,0,0,401.66,485l1.62,23.87,8.27-2.73a43.73,43.73,0,0,1-4.24,4.87,34.23,34.23,0,0,1-24.24,10.12h0" transform="translate(-117.38 -70.03)"/><polyline class="cls-1" points="376.2 259.04 379.22 259.04 384.97 259.88 390.91 259.04 393.94 259.04 393.94 261.99 394.94 264.1 393.94 271.15 385.17 271.15 380.94 270.62 376.2 271.15"/><path class="cls-1" d="M572,369.93h-3.93l-4,.63-3.53-.63h-6l-1.92.1-7.46-22.95-3.22-8.53-3.83-4.84.61,3.79v4.63l.6,4.63V365.4l.6,4.63h-4.43l-4.43.63L527.2,370h-8.87V365.4l.61-4.63V351.4l.7-4.64V328.23l.61-4.63V309.71l.6-4.64v-4.74l.71-4.52v-4.74l4.33.74,4.73-.74.1-.32h5.95A21.17,21.17,0,0,0,538,294l1.61,4,1.92,3.58,2.41,4.95.91,6,3.33,4.63,1.31,3.58,2.62,7.05,1.71,6.74v-6.42l.5-4.63V309.71l.61-4.64v-4.74l.6-4.52v-4.74l3.93.74,4.64-.74h4.53v9.26l1.21,4.74-.6,4.64.6,4.63v4.52l.51,4.64-.51,4.63.51,4.63.6,4.63V342l.61,4.63v18.63Z" transform="translate(-117.38 -70.03)"/><polyline class="cls-1" points="475.88 271.15 469.44 270.83 464.19 271.15 461.17 271.15 460.67 265.88 461.17 261.99 461.17 259.04 467.02 259.04 470.24 258.52 475.88 259.04"/></svg>