<svg id="Layer_1" data-name="Layer 1" xmlns="http://www.w3.org/2000/svg" viewBox="0 0 485.86 580"><defs><style>.cls-1{fill:#ed1c24;}.cls-2{fill:#032135;}.cls-3{fill:#fff;}.cls-4{fill:#fcb017;}</style></defs><title>up-n-smoke-logo</title><path class="cls-1" d="M927.4,789.63H471.62a15,15,0,0,1-15-15V719.72a15,15,0,0,1,15-15H927.4a15,15,0,0,1,15,15v54.86a15.05,15.05,0,0,1-15,15" transform="translate(-456.58 -209.63)"/><polyline class="cls-2" points="29.96 62.03 33.16 43.79 31.79 24.17 34.52 7.3 51.4 4.56 87.89 7.3 106.59 4.56 106.59 24.17 107.96 43.79 107.96 63.4 108.9 67.08 109.33 71.19 107.96 90.8 110.7 110.42 110.7 130.49 112.07 135.97 110.7 155.13 110.7 175.2 113.44 194.81 114.8 213.06 123.47 224.92 138.52 224.92 154.03 223.1 165.89 214.43 168.63 194.81 167.26 175.2 167.26 155.13 168.63 135.97 170 129.12 168.63 109.05 172.73 90.8 170 71.19 172.68 67.08 174.1 63.4 172.73 43.79 175.47 24.17 172.73 4.56 193.71 5.93 213.33 3.19 234.76 4.56 234.76 24.17 237.5 43.79 237.5 62.03 237.53 70.27 237.5 69.82 236.13 88.07 238.87 107.68 237.5 126.38 237.5 132.78 238.87 152.4 240.24 171.1 241.61 190.71 241.61 208.96 242.97 229.03 242.97 248.64 241.61 266.43 230.2 278.29 217.89 287.87 206.03 300.64 188.24 299.27 170 302.01 151.29 300.64 60.07 300.64 46.84 287.87 33.16 279.65 20.38 266.43 20.38 247.27 21.75 229.03 24.49 208.96 23.12 189.34 27.23 171.1 24.49 151.03 27.23 132.78 27.23 126.38 29.96 107.68 31.79 88.07 31.79 68.45"/><path class="cls-2" d="M729.2,273.49V253l3.2-19.61V212.82L752,216l23.26-3.19H795.8l11-1.83,32.84,4.11,30.1-5.47,21,.91,23.27,15.51,9.12,17.33L920.32,273l8.67-2.7-.91,67.5,3.19,22.82-5.93,17.79-12.77,10.49-15.51,10.49-29.65-1.36-18.24-2.74-38.32,1.82,1.83,12.32v80.73l2.73,20.07H795.34L775.27,513l-17.33-2.74H717.8V490.19l2.74-20.06v-40.6l3.19-20.07V341.94l2.74-20.07m77.14-46.23.4,6.09V301.8l2.28,11.86v5l.46,3.19v.91l7.29,4.56,17.79,4.56h18.7l8.21-9.12-4.1-24.63V270.33l-8.21-1.86H825.9l-17.79,2.28-4.1,2.74" transform="translate(-456.58 -209.63)"/><path class="cls-2" d="M499,601.45l11.23-.79,12,5.06,7,6.49-1.11,9.49,1.11,7.44-.48,17.09.95,12.81-13.29,12.19-11.23-.79-6.17,1.1-19.62-3.16-10.61.79-9.33-15-.32-20.73,2.22-5.38,9.18.63,8.54-1.1,4.59,3.16-.32,11.55,3.64,2.85h9.81L501,638l.48-10.76-6.33-7.91-13.45-1.27-6.33-3.79L465.28,610,464,593.22,465.76,575l-.48-10.92,13.29-11.71,14.4-.48c.32-.31,7,.48,10.13.48l11.08.32,5.38-.32c1.1.32,6.64,8.07,10.12,12v7.12l1.11,2.22v7.75l.79,4.59L522.72,589l-9.65-2.85-.63-5.7.95-4.27-5.23-4.59-6.64.32-7.91-.79-3.17,4.27,1.43,11.55.63,5.54-.32,5.85Z" transform="translate(-456.58 -209.63)"/><polygon class="cls-2" points="173.74 460.81 166.31 461.6 159.82 460.81 159.82 453.69 160.61 446.41 160.61 425.21 161.24 417.93 162.03 410.65 162.03 403.37 148.11 415.71 133.71 415.71 119.94 403.37 119.94 409.86 120.58 415.71 120.58 428.85 122 435.33 121.37 441.98 122.79 447.83 122.79 454.32 123.58 461.6 116.31 461.6 109.5 460.81 103.01 460.81 95.73 461.6 90.04 460.18 90.04 454.32 89.25 447.04 90.67 440.56 90.67 433.12 91.46 425.84 90.67 419.35 90.67 412.07 92.1 405.59 91.46 398.31 92.1 391.82 92.89 384.54 92.89 363.97 94.31 356.69 93.68 350.21 93.68 342.93 101.59 342.3 109.5 343.72 116.94 342.93 119.94 349.42 123.58 355.27 126.43 361.13 128.65 367.61 132.28 373.47 134.34 379.95 137.66 385.49 140.99 391.82 144.63 385.97 146.69 379.32 149.69 373.47 153.33 367.61 156.18 361.76 158.39 355.27 161.24 348.78 164.25 342.3 172.32 342.3 180.23 343.72 187.51 342.93 187.51 350.21 189.09 356.69 188.3 363.97 189.09 370.62 189.09 377.74 189.72 385.18 190.51 391.82 190.51 398.94 191.15 405.59 191.15 419.35 191.94 426.63 191.94 433.12 192.57 440.56 193.36 447.04 193.36 454.32 192.57 460.18 180.23 461.6 173.74 460.81"/><path class="cls-2" d="M940.77,663.79l-.31,9.65-16,3.48-10.61-2.84L903,676.77l-21.52-2.69-10,1.26-15.35-4.27-8.54-9.34-9-7.75-3.32-6.33-2.38-8.23-.31-.31-.64.31-3.16-6.64-2.53-10.45L824,616.64h-2.21l1,5.69v7l1,7v28l.94,7h-7l-7,.95-6-.95H790.77v-7l1-7V643.22l1.11-7V608.41l.95-7V580.56l1-7v-7.12l1.11-6.8v-7.12l6.8,1.1,8.07-1.1h7.91v13.92l2.06,7.12-.95,7,.95,7v7l1,7-.63,5.22,2.53-1.74,3-8.23,4.59-8.54,1.27-8.55,2.21-6.17,1.43-6.17,1-3.64,1.42-5.22,1.11-5.22,4.9-.48,5.7-.15,8.23.63,9.17.16-1.42,6.17-3.48,7.59-3.32,9.5-2.54,7.59L854.54,589l-1.11,8.7-3.8,6.33-1.42,4.91.95,6.8,5.38,5.38,1.74,4.9,1.9,8.07,4,4,6.33,4.43,7.6,5.54,8.86.63,7.44.95,16.61-.79,13.61-.48,13-2.21,2.69.32V659.2Zm-54.11-27.06-7.59-.47v-7.12l.94-7.75-.15-7.44,1.1-7.75.16-7.6,1.11-7.75v-7.44l.95-7.75.47-7.6v-7.59l1-7.44,7.28-.63,7.6,1.11,7.43-1.11,7.28.47h7.44l7.43.16.64,6.81V567l.95,6.65h-8.86l-8.39.32h-8.23l-.31,6.17.47,6.64,7.91-.47,7.44.47h7.44l.31,8.71,1.27,9-7.91-.48-7.28.48-8.07-.48-1,7.91,3.48,7.28,8.39-.32,8.07-.63,8.38,1.11.16,8.38v9h-15l-8.07.48H902.8l-8.07-.32Z" transform="translate(-456.58 -209.63)"/><path class="cls-3" d="M497,743.85l4.69-.33,5,2.12,2.91,2.7-.46,4,.46,3.1-.2,7.14.4,5.35L504.3,773l-4.69-.33-2.57.47-8.2-1.33-4.42.33-3.9-6.27-.13-8.65.92-2.25,3.83.26,3.57-.46,1.92,1.32-.13,4.83,1.51,1.18h4.1l1.78-3,.2-4.49-2.64-3.3-5.62-.53-2.64-1.59L483,747.42l-.52-7,.72-7.6-.2-4.56,5.55-4.88,6-.2c.13-.13,2.9.2,4.22.2l4.63.13,2.24-.13c.46.13,2.78,3.36,4.23,5v3l.46.92v3.24l.33,1.92-3.7,1.18-4-1.18-.26-2.38.4-1.79-2.18-1.91-2.78.13-3.3-.33L493.47,733l.59,4.83.27,2.31-.14,2.44Z" transform="translate(-456.58 -209.63)"/><path class="cls-3" d="M545,772.65l-2.64-.33-2.84.33h-5.15l-2.91.33-2.64-.33-2.51.33-2.58-.33-1.91-1.58-2-2-1.91-1.26.33-2.91v-8.38l.33-2.58v-2.91l.26-2.84.33-2.64v-2.91l-.33-2.84.33-2.64.33-2.84v-5.55l2.32-1.85,1.91-1.91,1.92-1.65h6.47l2.91.26,3.17-.26,3.23-.33,3.9,3.89,2.18,1.85v2.64l.4,2.91v2.84l.66,2.64v5.75l.33,3,.26,2.51.33,2.91-.33,3,.33,2.84.33,2.58.33,2.9v2.91l-2.64,1.92Zm-5.81-11.29v-6.08l-.33-4.56.33-3.23.33-2.84-.66-2.91v-2.91l.33-3.23v-2.91l-2-1.26-3.84-.33-1.58,1.59-.33,3.24.33,2.9-.33,2.91v9l.33,4.56-.66,2.84v3.24l1.91,1.25h4.5Z" transform="translate(-456.58 -209.63)"/><polygon class="cls-3" points="128.11 513.81 131.22 514.01 131.22 516.85 131.61 519.69 131.61 522.34 131.22 525.18 131.61 528.08 131.41 530.72 131.81 533.56 131.61 536.27 131.61 539.05 131.81 541.89 132.01 544.6 132.21 547.44 132.21 550.08 132.41 552.99 132.41 555.83 132.21 558.4 130.56 560.12 128.77 561.51 127.06 563.36 124.48 563.16 121.84 563.55 119.13 563.36 105.92 563.36 104 561.51 102.02 560.32 100.17 558.4 100.17 555.63 100.37 552.99 100.77 550.08 100.57 547.24 101.16 544.6 100.77 541.69 101.16 539.05 101.16 536.27 101.56 533.56 101.82 530.72 101.82 527.88 101.36 525.18 101.56 522.34 102.02 519.69 101.82 516.85 102.22 514.41 104.66 514.01 109.95 514.41 112.66 514.01 112.66 516.85 112.85 519.69 112.85 522.53 113.05 525.37 113.05 528.28 112.85 531.12 113.25 533.96 113.25 536.87 113.45 539.51 113.25 542.28 113.25 545.19 113.65 548.03 113.84 550.67 115.1 552.39 117.28 552.39 119.53 552.13 121.24 550.87 121.64 548.03 121.44 545.19 121.44 542.28 121.64 539.51 121.84 536.67 121.64 533.76 122.23 531.12 121.84 528.28 122.23 525.37 122.43 522.53 122.23 519.69 122.63 516.85 122.23 514.01 125.27 514.21 128.11 513.81"/><polygon class="cls-3" points="170.19 517.58 170.19 521.34 167.42 521.48 158.96 521.48 159.29 522.6 158.9 525.51 159.29 528.41 159.29 531.32 159.69 534.23 159.29 537.13 159.69 540.04 160.15 542.95 160.15 545.85 159.89 548.76 160.55 551.66 160.55 560.45 160.94 563.36 158.04 563.36 155.13 563.75 152.62 563.36 146.81 563.36 146.81 560.45 147.2 557.54 147.2 551.66 147.67 548.76 147.67 537.13 148.06 534.23 148.85 531.32 148.06 528.41 148.06 525.51 148.46 522.6 148.46 521.41 146.87 521.48 135.97 521.81 135.97 520.02 135.71 517.45 136.17 515.6 135.97 513.81 138.35 513.95 147.07 513.95 150.44 514.34 154.4 513.68 156.98 513.75 158.37 513.81 158.43 513.81 161.08 513.95 169.86 513.88 170.06 515.73 170.19 517.58"/><polygon class="cls-3" points="208.96 563.36 206.06 563.36 203.15 563.75 200.64 563.36 194.83 563.36 194.83 560.45 195.22 557.54 195.22 551.66 195.69 548.76 195.69 544.13 194.56 544 190.47 544 188.16 544.33 188.16 545.85 188.55 548.76 188.55 560.45 188.95 563.36 186.04 563.36 183.14 563.75 180.63 563.36 174.81 563.36 174.81 560.45 175.21 557.54 175.21 551.66 175.67 548.76 175.67 537.13 176.07 534.23 176.07 525.51 176.46 522.6 176.46 519.63 176.93 516.79 176.93 513.81 179.77 514.28 183.14 513.81 186.44 513.81 186.44 519.63 187.3 522.6 186.9 525.51 187.3 528.41 187.3 529.93 187.36 529.93 187.3 530.39 187.3 531.32 187.36 531.72 190.07 532.05 193.04 531.32 196.08 531.32 196.08 525.51 196.48 522.6 196.48 519.63 196.94 516.79 196.94 513.81 199.78 514.28 203.15 513.81 206.45 513.81 206.45 519.63 207.31 522.6 206.92 525.51 207.31 528.41 207.31 531.32 207.71 534.23 207.31 537.13 207.71 540.04 208.17 542.95 208.17 545.85 208.57 548.76 208.57 560.45 208.96 563.36"/><path class="cls-3" d="M701,773l-2.84-.13-3,.4-2.78-.4-3.1.4h-5.75L680.8,773l-2.91.27H675l-2.84-.27.26-2.77.13-2.91-.13-3.1.13-2.84v-2.84l.27-3.11v-2.9l.66-2.84-.2-2.91.2-3,.2-2.84-.2-2.91.2-2.77.26-3.11.13-3,.53-2.84v-2.84l2.64.27,2.84-.27h2.84l1.19-.46c-.26-.13,1.92.46,2.91.66l8.19.2,2.77-.4v4.16l.53,4.1-3.23.46L691.1,732l-4.29-.33-3,.39.2,2.85-.2,3,.72,2.78,2.05.06a40.52,40.52,0,0,1,4.23.2l5.88-.33a54.63,54.63,0,0,1,.79,5.55l-.66,3.7.26,4-7.26.07-4.76-.27.2,1.39v4.62l.73,2.64,2.9-.13,3,.6,2.84-.47h6V767l-.26,3.17Z" transform="translate(-456.58 -209.63)"/><path class="cls-3" d="M739.79,772.72l-2.51.53c-.2.26-.93,0-1.39,0l-2.12-.14-3.83-.33-3.17.2-.39-2.57-1.06-4.23-1-3.11v-4.69l-1.52-1.45-1-2.51-.53-1.58-1,.13v2.51l.4,2.9v11.7l.39,2.9h-2.9l-2.91.4-2.51-.4H707v-2.9l.39-2.91v-5.88l.46-2.91v-8.72l1.92-2.84-1.52-3v-8.72l.4-2.9v-3l.46-2.84v-3l2.84.46,3.37-.46h3.3v.13h.33a40,40,0,0,0,4.23-.26l3.57-.2,2.44,1.06,4.16,1.58,2.31,1.92,1.72,3.43.66,3.11-.53,3.3c0,.33.27,5,.14,5.35a12.16,12.16,0,0,1-.86,2.91l-1.92,2.44-2.57,1.65.85,2.51,1.19,2.91c.2.4.66,1.52,1,2.25l.53,3.76,2.31,4.62,1,3.7,1.45,2.65c.2.33-.53.33-.79.46m-13.88-38.25c0-1.05-.79-1.32-3.5-1.91l-2.18.2-.86.06-.33,2.31.4,2.91V741l.4,2.9-.13,1.13h1.91l2.25.13,1.38-.93.73-2.24v-.66l-.46-2.18.59-1.59a24.61,24.61,0,0,0-.2-3" transform="translate(-456.58 -209.63)"/><path class="cls-3" d="M780.47,772.92H777.9l-2.64.39-2.32-.39h-4l-1.25.06-4.89-14.4-2.12-5.35-2.51-3,.4,2.38v2.91l.4,2.9v11.7l.39,2.9h-2.9l-2.91.4-2.51-.4h-5.81v-2.9l.39-2.91v-5.88l.47-2.91V746.76l.39-2.91v-8.72l.4-2.9v-3l.46-2.84v-3l2.84.46,3.11-.46.06-.2h3.9a12.25,12.25,0,0,0,.86,2l1.05,2.51,1.26,2.25,1.59,3.1.59,3.77,2.18,2.9.86,2.25,1.72,4.42,1.12,4.23v-4l.33-2.9v-8.66l.4-2.9v-3l.39-2.84v-3l2.58.46,3-.46h3v5.81l.79,3-.39,2.9L779,738v2.84l.33,2.91-.33,2.9.33,2.91.4,2.91v2.9l.39,2.91V770Z" transform="translate(-456.58 -209.63)"/><path class="cls-3" d="M837.41,754.36v5.41l.2,2.58.27,2.57.33,2.78-2.05,2-2.31,1.39-2.05,1.78h-5.15l-2.65.6-2.57-.27-2.64-.33h-9.38l-3.17.33v-3.24l.33-2.9v-2.91l.19-2.9v-2.91l.33-2.91-.33-2.9.33-3,.27-2.84v-5.88l.4-2.9.26-2.84-.26-2.84.52-3v-5.81h3.17l3.24.27,2.84-.6.6.33h7.66l2.57-.33h2.58l2.11,1.65,1.72,1.79.27,3,.26,3.17.53,3,.33,2.77v3l.4,2.85-3,2.64,3,2.11.52,2.44Zm-19.28-21.87.26,2.84v2.84l.66,3v1.19l1.12.53,2.58.6h2.71l1.19-1.13-.6-3.1V736l-.26-3.3-.93-1.19h-3l-2.58.26Zm8.52,32.43-.33-3.36-.27-3v-3.17l-.59-2.9-.93-1.26-2.64.26-2.58-.52-1.18,1.19v2.9l.66,2.91v3l.26,3.7.86,1.25h2.58l2.64-.26Z" transform="translate(-456.58 -209.63)"/><path class="cls-3" d="M875.33,754.36v5.41l.2,2.58.26,2.57.33,2.78-2,2-2.31,1.39-2,1.78h-5.15l-2.64.6-2.58-.27-2.64-.33h-9.38l-3.17.33v-3.24l.33-2.9v-2.91l.2-2.9v-2.91l.33-2.91-.33-2.9.33-3,.26-2.84v-5.88l.4-2.9.26-2.84-.26-2.84.53-3v-5.81h3.17l3.23.27,2.85-.6.59.33h7.66l2.58-.33h2.57l2.12,1.65,1.72,1.79.26,3,.26,3.17.53,3,.33,2.77v3l.4,2.85-3,2.64,3,2.11.53,2.44ZM856,732.49l.26,2.84v2.84l.66,3v1.19l1.13.53,2.57.6h2.71l1.19-1.13-.59-3.1V736l-.27-3.3-.92-1.19h-3l-2.57.26Zm8.52,32.43-.33-3.36-.26-3v-3.17l-.6-2.9-.92-1.26-2.65.26-2.57-.52L856,752.18v2.9l.66,2.91v3l.26,3.7.86,1.25h2.58l2.64-.26Z" transform="translate(-456.58 -209.63)"/><path class="cls-3" d="M909.15,772.65l-2.64-.33-2.85.33h-5.15l-2.9.33-2.65-.33-2.51.33-2.57-.33L886,771.07l-2-2-1.92-1.26.33-2.91v-8.38l.33-2.58v-2.91l.27-2.84.33-2.64v-2.91l-.33-2.84.33-2.64.33-2.84v-5.55l2.31-1.85,1.92-1.91,1.91-1.65h6.48l2.9.26,3.17-.26,3.24-.33,3.9,3.89,2.18,1.85v2.64l.39,2.91v2.84l.66,2.64v5.75l.33,3,.27,2.51.33,2.91-.33,3,.33,2.84.33,2.58.33,2.9v2.91l-2.64,1.92Zm-5.82-11.29v-6.08l-.33-4.56.33-3.23.33-2.84-.66-2.91v-2.91l.33-3.23v-2.91l-2-1.26-3.83-.33-1.58,1.59-.33,3.24.33,2.9-.33,2.91v9l.33,4.56-.67,2.84v3.24l1.92,1.25h4.49Z" transform="translate(-456.58 -209.63)"/><polygon class="cls-3" points="460.08 562.67 457.48 563.45 454.02 561.38 452.15 560.53 450.75 559.1 448.7 558.32 445.88 558.65 447.02 554.48 448.79 550.07 451.41 549.5 453.96 550.27 455.92 551.3 457.2 552.4 459.42 553.39 460.67 554.19 462.87 553.53 466.15 554.24 464.85 558.71 462.73 562.98 460.08 562.67"/><path class="cls-4" d="M777.71,612.48a2.65,2.65,0,0,0-.29-.63A41.19,41.19,0,0,1,759.59,623c0-.23-.05-.31,0-.34.62-1,1.26-2,1.88-2.93,7.83-12.36,10.54-25.53,6.14-39.76-3.16-10.22-9-18.78-16.58-26.23-.88-.87-1.79-1.7-3-2.81a51.84,51.84,0,0,1-9.15,20.91c-1.63-8.37-4.13-15.82-8.56-22.49s-10.18-12.13-17.86-15.14a3.26,3.26,0,0,0-.42.58,6.76,6.76,0,0,0-.33,1A40.63,40.63,0,0,1,706,548.56c-2.81,4.2-5.75,8.31-8.72,12.39-7,9.58-11.68,20-12.53,32-.12,1.64-.23,3.29-.37,5.22l-.11.1c-4.25-4-7.13-8.63-10-13.75-.79,1.6-1.48,2.81-2,4.08a80.32,80.32,0,0,0-5.24,37.93,58.46,58.46,0,0,0,19.79,39.32,52.87,52.87,0,0,0,72.91-2c14.3-14.21,19.09-31.79,18-51.41" transform="translate(-456.58 -209.63)"/><path class="cls-1" d="M722.27,660.68a34.38,34.38,0,0,1-22.9-8.84,39.82,39.82,0,0,1-13.6-27.09c-.1-1-.17-2.09-.23-3.12l17-14.15.92-13.2c.54-7.5,3.39-14.58,9-22.28,1.63-2.24,3.32-4.58,5-7a54.38,54.38,0,0,1,3,10.39l8.24,42.4,21.64-29.75c1.57,7.26.06,14-4.73,21.6l-1,1.51-.85,1.32a18.73,18.73,0,0,0-2.89,12.07l1.62,23.88,8.27-2.74a42.85,42.85,0,0,1-4.24,4.87,34.23,34.23,0,0,1-24.24,10.12h0" transform="translate(-456.58 -209.63)"/><polyline class="cls-1" points="376.2 259.04 379.22 259.04 384.97 259.88 390.91 259.04 393.94 259.04 393.94 261.99 394.94 264.1 393.94 271.15 385.17 271.15 380.94 270.62 376.2 271.15"/><path class="cls-1" d="M911.24,509.52h-3.93l-4,.63-3.53-.63h-6l-1.91.1-7.46-22.95-3.22-8.53-3.83-4.84.6,3.79v4.63l.61,4.64V505l.6,4.63h-4.43l-4.43.63-3.83-.63h-8.87V505l.6-4.63V491l.71-4.63V467.83l.6-4.64V449.3l.61-4.64v-4.73l.7-4.53v-4.74l4.34.74,4.73-.74.1-.31h6a20.16,20.16,0,0,0,1.31,3.26l1.61,4,1.92,3.58,2.41,4.95.91,6,3.33,4.63,1.3,3.58,2.63,7.06,1.71,6.73v-6.42l.5-4.63V449.3l.61-4.64v-4.73l.6-4.53v-4.74l3.93.74,4.64-.74h4.53v9.27l1.21,4.73-.6,4.64.6,4.63v4.53l.5,4.63-.5,4.63.5,4.63.61,4.64v4.63l.6,4.63v18.64Z" transform="translate(-456.58 -209.63)"/><polyline class="cls-1" points="475.88 271.15 469.44 270.83 464.19 271.15 461.17 271.15 460.67 265.88 461.17 261.99 461.17 259.04 467.02 259.04 470.24 258.52 475.88 259.04"/></svg>